<svg width="20" height="20" viewBox="0 0 20 20" fill="none" xmlns="http://www.w3.org/2000/svg">
<g clip-path="url(#clip0)">
<path d="M19.9145 0.567701C19.7535 0.199026 19.4749 0.0146641 19.0772 0.0144653H0.922199C0.525107 0.0144653 0.246055 0.199026 0.085291 0.567701C-0.0753739 0.955254 -0.00924985 1.28642 0.283961 1.56055L7.27676 8.55315V15.4465C7.27676 15.6927 7.36663 15.9051 7.54622 16.0851L11.1771 19.7158C11.3474 19.8954 11.5601 19.9855 11.8155 19.9855C11.9289 19.9855 12.047 19.9617 12.17 19.9145C12.5389 19.7536 12.7234 19.4747 12.7234 19.0776V8.5532L19.716 1.5606C20.0093 1.28647 20.0753 0.955403 19.9145 0.567701Z" fill="#4E5C6E"/>
</g>
<defs>
<clipPath id="clip0">
<rect width="20" height="20" fill="white"/>
</clipPath>
</defs>
</svg>
