<svg width="24" height="24" viewBox="0 0 24 24" fill="none" xmlns="http://www.w3.org/2000/svg">
<g clip-path="url(#clip0)">
<path d="M23.8975 1.66391C23.7043 1.2215 23.3699 1.00027 22.8928 1.00003H1.10671C0.630202 1.00003 0.29534 1.2215 0.102422 1.66391C-0.0903754 2.12898 -0.0110266 2.52638 0.340827 2.85534L8.73218 11.2465V19.5185C8.73218 19.8139 8.84003 20.0688 9.05554 20.2848L13.4126 24.6417C13.617 24.8571 13.8722 24.9653 14.1787 24.9653C14.3147 24.9653 14.4565 24.9367 14.6041 24.88C15.0468 24.687 15.2682 24.3524 15.2682 23.8758V11.2465L23.6592 2.8554C24.0112 2.52644 24.0904 2.12916 23.8975 1.66391Z" fill="#4E5C6E"/>
</g>
<defs>
<clipPath id="clip0">
<rect width="24" height="24" fill="white"/>
</clipPath>
</defs>
</svg>
