<svg width="218" height="43" viewBox="0 0 218 43" fill="none" xmlns="http://www.w3.org/2000/svg">
<path d="M67.8926 33H62.6191V7.40625H67.8926V33ZM77.1387 13.9805L77.2969 16.1777C78.6562 14.4785 80.4785 13.6289 82.7637 13.6289C84.7793 13.6289 86.2793 14.2207 87.2637 15.4043C88.248 16.5879 88.752 18.3574 88.7754 20.7129V33H83.6953V20.8359C83.6953 19.7578 83.4609 18.9785 82.9922 18.498C82.5234 18.0059 81.7441 17.7598 80.6543 17.7598C79.2246 17.7598 78.1523 18.3691 77.4375 19.5879V33H72.3574V13.9805H77.1387ZM99.7617 26.7949L103.295 13.9805H108.604L102.188 33H97.3359L90.9199 13.9805H96.2285L99.7617 26.7949ZM119.361 33.3516C116.572 33.3516 114.299 32.4961 112.541 30.7852C110.795 29.0742 109.922 26.7949 109.922 23.9473V23.4551C109.922 21.5449 110.291 19.8398 111.029 18.3398C111.768 16.8281 112.811 15.668 114.158 14.8594C115.518 14.0391 117.064 13.6289 118.799 13.6289C121.4 13.6289 123.445 14.4492 124.934 16.0898C126.434 17.7305 127.184 20.0566 127.184 23.0684V25.1426H115.072C115.236 26.3848 115.729 27.3809 116.549 28.1309C117.381 28.8809 118.43 29.2559 119.695 29.2559C121.652 29.2559 123.182 28.5469 124.283 27.1289L126.779 29.9238C126.018 31.002 124.986 31.8457 123.686 32.4551C122.385 33.0527 120.943 33.3516 119.361 33.3516ZM118.781 17.7422C117.773 17.7422 116.953 18.082 116.32 18.7617C115.699 19.4414 115.301 20.4141 115.125 21.6797H122.191V21.2754C122.168 20.1504 121.863 19.2832 121.277 18.6738C120.691 18.0527 119.859 17.7422 118.781 17.7422ZM134.76 13.9805L134.918 16.1777C136.277 14.4785 138.1 13.6289 140.385 13.6289C142.4 13.6289 143.9 14.2207 144.885 15.4043C145.869 16.5879 146.373 18.3574 146.396 20.7129V33H141.316V20.8359C141.316 19.7578 141.082 18.9785 140.613 18.498C140.145 18.0059 139.365 17.7598 138.275 17.7598C136.846 17.7598 135.773 18.3691 135.059 19.5879V33H129.979V13.9805H134.76ZM155.027 13.9805L155.186 16.1074C156.533 14.4551 158.355 13.6289 160.652 13.6289C163.102 13.6289 164.783 14.5957 165.697 16.5293C167.033 14.5957 168.938 13.6289 171.41 13.6289C173.473 13.6289 175.008 14.2324 176.016 15.4395C177.023 16.6348 177.527 18.4395 177.527 20.8535V33H172.43V20.8711C172.43 19.793 172.219 19.0078 171.797 18.5156C171.375 18.0117 170.631 17.7598 169.564 17.7598C168.041 17.7598 166.986 18.4863 166.4 19.9395L166.418 33H161.338V20.8887C161.338 19.7871 161.121 18.9902 160.688 18.498C160.254 18.0059 159.516 17.7598 158.473 17.7598C157.031 17.7598 155.988 18.3574 155.344 19.5527V33H150.264V13.9805H155.027ZM192.469 33C192.234 32.543 192.064 31.9746 191.959 31.2949C190.729 32.666 189.129 33.3516 187.16 33.3516C185.297 33.3516 183.75 32.8125 182.52 31.7344C181.301 30.6562 180.691 29.2969 180.691 27.6562C180.691 25.6406 181.436 24.0938 182.924 23.0156C184.424 21.9375 186.586 21.3926 189.41 21.3809H191.748V20.291C191.748 19.4121 191.52 18.709 191.062 18.1816C190.617 17.6543 189.908 17.3906 188.936 17.3906C188.08 17.3906 187.406 17.5957 186.914 18.0059C186.434 18.416 186.193 18.9785 186.193 19.6934H181.113C181.113 18.5918 181.453 17.5723 182.133 16.6348C182.812 15.6973 183.773 14.9648 185.016 14.4375C186.258 13.8984 187.652 13.6289 189.199 13.6289C191.543 13.6289 193.4 14.2207 194.771 15.4043C196.154 16.5762 196.846 18.2285 196.846 20.3613V28.6055C196.857 30.4102 197.109 31.7754 197.602 32.7012V33H192.469ZM188.268 29.4668C189.018 29.4668 189.709 29.3027 190.342 28.9746C190.975 28.6348 191.443 28.1836 191.748 27.6211V24.3516H189.85C187.307 24.3516 185.953 25.2305 185.789 26.9883L185.771 27.2871C185.771 27.9199 185.994 28.4414 186.439 28.8516C186.885 29.2617 187.494 29.4668 188.268 29.4668ZM211.049 27.7441C211.049 27.123 210.738 26.6367 210.117 26.2852C209.508 25.9219 208.523 25.5996 207.164 25.3184C202.641 24.3691 200.379 22.4473 200.379 19.5527C200.379 17.8652 201.076 16.459 202.471 15.334C203.877 14.1973 205.711 13.6289 207.973 13.6289C210.387 13.6289 212.314 14.1973 213.756 15.334C215.209 16.4707 215.936 17.9473 215.936 19.7637H210.855C210.855 19.0371 210.621 18.4395 210.152 17.9707C209.684 17.4902 208.951 17.25 207.955 17.25C207.1 17.25 206.438 17.4434 205.969 17.8301C205.5 18.2168 205.266 18.709 205.266 19.3066C205.266 19.8691 205.529 20.3262 206.057 20.6777C206.596 21.0176 207.498 21.3164 208.764 21.5742C210.029 21.8203 211.096 22.1016 211.963 22.418C214.646 23.4023 215.988 25.1074 215.988 27.5332C215.988 29.2676 215.244 30.6738 213.756 31.752C212.268 32.8184 210.346 33.3516 207.99 33.3516C206.396 33.3516 204.979 33.0703 203.736 32.5078C202.506 31.9336 201.539 31.1543 200.836 30.1699C200.133 29.1738 199.781 28.1016 199.781 26.9531H204.598C204.645 27.8555 204.979 28.5469 205.6 29.0273C206.221 29.5078 207.053 29.748 208.096 29.748C209.068 29.748 209.801 29.5664 210.293 29.2031C210.797 28.8281 211.049 28.3418 211.049 27.7441Z" fill="#0071FF"/>
<path fill-rule="evenodd" clip-rule="evenodd" d="M23.1915 12.4534L17.8725 3L0 34.7647H10.638L8.25495 39H44L26.1275 7.23529L23.1915 12.4534Z" fill="#0071FF"/>
</svg>
