<svg width="20" height="20" viewBox="0 0 20 20" fill="none" xmlns="http://www.w3.org/2000/svg">
<path d="M12.0691 4.47316C12.9939 5.05296 13.6423 6.03412 13.7604 7.17302C14.1375 7.34923 14.5561 7.45057 14.9999 7.45057C16.62 7.45057 17.9331 6.13745 17.9331 4.51758C17.9331 2.89747 16.62 1.58435 14.9999 1.58435C13.3952 1.58485 12.0936 2.8745 12.0691 4.47316ZM10.1475 10.4789C11.7676 10.4789 13.0807 9.16553 13.0807 7.54566C13.0807 5.9258 11.7674 4.61268 10.1475 4.61268C8.52764 4.61268 7.21378 5.92605 7.21378 7.54591C7.21378 9.16578 8.52764 10.4789 10.1475 10.4789ZM11.3917 10.6788H8.90278C6.8319 10.6788 5.14714 12.3638 5.14714 14.4347V17.4785L5.15487 17.5262L5.36453 17.5918C7.34082 18.2093 9.05778 18.4153 10.471 18.4153C13.2312 18.4153 14.8312 17.6283 14.9297 17.5781L15.1257 17.479H15.1466V14.4347C15.1474 12.3638 13.4626 10.6788 11.3917 10.6788ZM16.2446 7.65074H13.7749C13.7482 8.63889 13.3263 9.52869 12.6592 10.1687C14.4999 10.716 15.8468 12.423 15.8468 14.4392V15.3772C18.2853 15.2878 19.6905 14.5967 19.7831 14.5503L19.979 14.4509H20V11.4061C20 9.33551 18.3152 7.65074 16.2446 7.65074ZM5.00062 7.45107C5.57444 7.45107 6.10832 7.28359 6.56059 6.9983C6.70436 6.06058 7.20704 5.24116 7.92512 4.68307C7.92812 4.62815 7.93336 4.57374 7.93336 4.51833C7.93336 2.89822 6.61999 1.5851 5.00062 1.5851C3.38026 1.5851 2.06739 2.89822 2.06739 4.51833C2.06739 6.1377 3.38026 7.45107 5.00062 7.45107ZM7.63484 10.1687C6.97092 9.53194 6.55061 8.64687 6.51991 7.66472C6.4283 7.65798 6.3377 7.65074 6.24435 7.65074H3.75565C1.68476 7.65074 0 9.33551 0 11.4061V14.4504L0.00773743 14.4974L0.217397 14.5635C1.80282 15.0585 3.21777 15.2866 4.44677 15.3585V14.4392C4.44727 12.423 5.79359 10.7165 7.63484 10.1687Z" fill="#4E5C6E"/>
</svg>
