<svg width="24" height="24" viewBox="0 0 24 24" fill="none" xmlns="http://www.w3.org/2000/svg">
<mask id="path-1-inside-1" fill="white">
<path d="M16.6667 14.6667H15.6133L15.24 14.3067C16.5467 12.7867 17.3333 10.8133 17.3333 8.66667C17.3333 3.88 13.4533 0 8.66667 0C3.88 0 0 3.88 0 8.66667C0 13.4533 3.88 17.3333 8.66667 17.3333C10.8133 17.3333 12.7867 16.5467 14.3067 15.24L14.6667 15.6133V16.6667L21.3333 23.32L23.32 21.3333L16.6667 14.6667ZM8.66667 14.6667C5.34667 14.6667 2.66667 11.9867 2.66667 8.66667C2.66667 5.34667 5.34667 2.66667 8.66667 2.66667C11.9867 2.66667 14.6667 5.34667 14.6667 8.66667C14.6667 11.9867 11.9867 14.6667 8.66667 14.6667Z"/>
</mask>
<path d="M16.6667 14.6667H15.6133L15.24 14.3067C16.5467 12.7867 17.3333 10.8133 17.3333 8.66667C17.3333 3.88 13.4533 0 8.66667 0C3.88 0 0 3.88 0 8.66667C0 13.4533 3.88 17.3333 8.66667 17.3333C10.8133 17.3333 12.7867 16.5467 14.3067 15.24L14.6667 15.6133V16.6667L21.3333 23.32L23.32 21.3333L16.6667 14.6667ZM8.66667 14.6667C5.34667 14.6667 2.66667 11.9867 2.66667 8.66667C2.66667 5.34667 5.34667 2.66667 8.66667 2.66667C11.9867 2.66667 14.6667 5.34667 14.6667 8.66667C14.6667 11.9867 11.9867 14.6667 8.66667 14.6667Z" fill="white"/>
<path d="M15.6133 14.6667L12.8368 17.546L13.9989 18.6667H15.6133V14.6667ZM15.24 14.3067L12.2067 11.6991L9.74411 14.5638L12.4635 17.186L15.24 14.3067ZM14.3067 15.24L17.186 12.4635L14.5638 9.74411L11.6991 12.2067L14.3067 15.24ZM14.6667 15.6133H18.6667V13.9989L17.546 12.8368L14.6667 15.6133ZM14.6667 16.6667H10.6667V18.3259L11.8411 19.4979L14.6667 16.6667ZM21.3333 23.32L18.5077 26.1513L21.3362 28.974L24.1618 26.1484L21.3333 23.32ZM23.32 21.3333L26.1484 24.1618L28.974 21.3362L26.1513 18.5077L23.32 21.3333ZM16.6667 10.6667H15.6133V18.6667H16.6667V10.6667ZM18.3899 11.7873L18.0165 11.4273L12.4635 17.186L12.8368 17.546L18.3899 11.7873ZM18.2733 16.9142C20.1789 14.6974 21.3333 11.8074 21.3333 8.66667H13.3333C13.3333 9.81923 12.9144 10.8759 12.2067 11.6991L18.2733 16.9142ZM21.3333 8.66667C21.3333 1.67086 15.6625 -4 8.66667 -4V4C11.2442 4 13.3333 6.08914 13.3333 8.66667H21.3333ZM8.66667 -4C1.67086 -4 -4 1.67086 -4 8.66667H4C4 6.08914 6.08914 4 8.66667 4V-4ZM-4 8.66667C-4 15.6625 1.67086 21.3333 8.66667 21.3333V13.3333C6.08914 13.3333 4 11.2442 4 8.66667H-4ZM8.66667 21.3333C11.8074 21.3333 14.6974 20.1789 16.9142 18.2733L11.6991 12.2067C10.8759 12.9144 9.81923 13.3333 8.66667 13.3333V21.3333ZM11.4273 18.0165L11.7873 18.3899L17.546 12.8368L17.186 12.4635L11.4273 18.0165ZM10.6667 15.6133V16.6667H18.6667V15.6133H10.6667ZM11.8411 19.4979L18.5077 26.1513L24.1589 20.4887L17.4923 13.8354L11.8411 19.4979ZM24.1618 26.1484L26.1484 24.1618L20.4916 18.5049L18.5049 20.4916L24.1618 26.1484ZM26.1513 18.5077L19.4979 11.8411L13.8354 17.4923L20.4887 24.1589L26.1513 18.5077ZM8.66667 10.6667C7.55581 10.6667 6.66667 9.77753 6.66667 8.66667H-1.33333C-1.33333 14.1958 3.13753 18.6667 8.66667 18.6667V10.6667ZM6.66667 8.66667C6.66667 7.55581 7.55581 6.66667 8.66667 6.66667V-1.33333C3.13753 -1.33333 -1.33333 3.13753 -1.33333 8.66667H6.66667ZM8.66667 6.66667C9.77753 6.66667 10.6667 7.55581 10.6667 8.66667H18.6667C18.6667 3.13753 14.1958 -1.33333 8.66667 -1.33333V6.66667ZM10.6667 8.66667C10.6667 9.77753 9.77753 10.6667 8.66667 10.6667V18.6667C14.1958 18.6667 18.6667 14.1958 18.6667 8.66667H10.6667Z" fill="white" mask="url(#path-1-inside-1)"/>
</svg>
