<svg width="32" height="32" viewBox="0 0 32 32" fill="none" xmlns="http://www.w3.org/2000/svg">
<mask id="path-1-inside-1" fill="white">
<path d="M20.6667 18.6667H19.6133L19.24 18.3067C20.5467 16.7867 21.3333 14.8133 21.3333 12.6667C21.3333 7.88 17.4533 4 12.6667 4C7.88 4 4 7.88 4 12.6667C4 17.4533 7.88 21.3333 12.6667 21.3333C14.8133 21.3333 16.7867 20.5467 18.3067 19.24L18.6667 19.6133V20.6667L25.3333 27.32L27.32 25.3333L20.6667 18.6667ZM12.6667 18.6667C9.34667 18.6667 6.66667 15.9867 6.66667 12.6667C6.66667 9.34667 9.34667 6.66667 12.6667 6.66667C15.9867 6.66667 18.6667 9.34667 18.6667 12.6667C18.6667 15.9867 15.9867 18.6667 12.6667 18.6667Z"/>
</mask>
<path d="M20.6667 18.6667L23.4979 15.8411L22.3259 14.6667H20.6667V18.6667ZM19.6133 18.6667L16.8368 21.546L17.9989 22.6667H19.6133V18.6667ZM19.24 18.3067L16.2067 15.6991L13.7441 18.5638L16.4635 21.186L19.24 18.3067ZM18.3067 19.24L21.186 16.4635L18.5638 13.7441L15.6991 16.2067L18.3067 19.24ZM18.6667 19.6133H22.6667V17.9989L21.546 16.8368L18.6667 19.6133ZM18.6667 20.6667H14.6667V22.3259L15.8411 23.4979L18.6667 20.6667ZM25.3333 27.32L22.5077 30.1513L25.3362 32.974L28.1618 30.1484L25.3333 27.32ZM27.32 25.3333L30.1484 28.1618L32.974 25.3362L30.1513 22.5077L27.32 25.3333ZM20.6667 14.6667H19.6133V22.6667H20.6667V14.6667ZM22.3899 15.7873L22.0165 15.4273L16.4635 21.186L16.8368 21.546L22.3899 15.7873ZM22.2733 20.9142C24.1789 18.6974 25.3333 15.8074 25.3333 12.6667H17.3333C17.3333 13.8192 16.9144 14.8759 16.2067 15.6991L22.2733 20.9142ZM25.3333 12.6667C25.3333 5.67086 19.6625 0 12.6667 0V8C15.2442 8 17.3333 10.0891 17.3333 12.6667H25.3333ZM12.6667 0C5.67086 0 0 5.67086 0 12.6667H8C8 10.0891 10.0891 8 12.6667 8V0ZM0 12.6667C0 19.6625 5.67086 25.3333 12.6667 25.3333V17.3333C10.0891 17.3333 8 15.2442 8 12.6667H0ZM12.6667 25.3333C15.8074 25.3333 18.6974 24.1789 20.9142 22.2733L15.6991 16.2067C14.8759 16.9144 13.8192 17.3333 12.6667 17.3333V25.3333ZM15.4273 22.0165L15.7873 22.3899L21.546 16.8368L21.186 16.4635L15.4273 22.0165ZM14.6667 19.6133V20.6667H22.6667V19.6133H14.6667ZM15.8411 23.4979L22.5077 30.1513L28.1589 24.4887L21.4923 17.8354L15.8411 23.4979ZM28.1618 30.1484L30.1484 28.1618L24.4916 22.5049L22.5049 24.4916L28.1618 30.1484ZM30.1513 22.5077L23.4979 15.8411L17.8354 21.4923L24.4887 28.1589L30.1513 22.5077ZM12.6667 14.6667C11.5558 14.6667 10.6667 13.7775 10.6667 12.6667H2.66667C2.66667 18.1958 7.13753 22.6667 12.6667 22.6667V14.6667ZM10.6667 12.6667C10.6667 11.5558 11.5558 10.6667 12.6667 10.6667V2.66667C7.13753 2.66667 2.66667 7.13753 2.66667 12.6667H10.6667ZM12.6667 10.6667C13.7775 10.6667 14.6667 11.5558 14.6667 12.6667H22.6667C22.6667 7.13753 18.1958 2.66667 12.6667 2.66667V10.6667ZM14.6667 12.6667C14.6667 13.7775 13.7775 14.6667 12.6667 14.6667V22.6667C18.1958 22.6667 22.6667 18.1958 22.6667 12.6667H14.6667Z" fill="#4E5C6E" mask="url(#path-1-inside-1)"/>
</svg>
