<svg width="64" height="64" viewBox="0 0 64 64" fill="none" xmlns="http://www.w3.org/2000/svg">
<path d="M32 0C14.3557 0 0 14.3545 0 32C0 49.6455 14.3557 64 32 64C49.6443 64 64 49.6455 64 32C64 14.3545 49.6443 0 32 0ZM32 61.5385C15.7132 61.5385 2.46154 48.2868 2.46154 32C2.46154 15.7132 15.7132 2.46154 32 2.46154C48.2868 2.46154 61.5385 15.7132 61.5385 32C61.5385 48.2868 48.2868 61.5385 32 61.5385Z" fill="#27AE60"/>
<path d="M47.0793 18.8751L28.1637 40.1551L16.768 31.0388C16.2387 30.6142 15.4621 30.7015 15.0387 31.2308C14.6141 31.7625 14.7003 32.5366 15.2307 32.9612L27.5384 42.8074C27.7649 42.9883 28.0369 43.0769 28.3077 43.0769C28.6473 43.0769 28.9858 42.9366 29.2283 42.6634L48.9206 20.5095C49.3723 20.0025 49.3267 19.2234 48.8184 18.7729C48.3089 18.32 47.5323 18.3655 47.0793 18.8751Z" fill="#27AE60"/>
</svg>
